# Blender 4.2.1 LTS
# www.blender.org
mtllib hole.mtl
o hole
v 0.500000 0.000000 0.500000
v -0.500000 0.000000 0.500000
v 0.500000 -0.000000 -0.500000
v -0.500000 -0.000000 -0.500000
v 0.500000 -0.000000 -0.416667
v 0.500000 -0.000000 0.416667
v -0.500000 0.000000 0.416667
v -0.500000 0.000000 -0.416667
v -0.500000 -0.332280 0.416667
v 0.500000 -0.332281 0.416667
v 0.500000 -0.332281 -0.416667
v 0.500000 -0.332281 -0.500000
v -0.500000 -0.332281 -0.500000
v -0.500000 -0.332281 -0.416667
v -0.500000 -0.332280 0.500000
v 0.500000 -0.332281 0.500000
v 0.416667 0.000000 0.500000
v -0.416667 0.000000 0.500000
v -0.416667 -0.000000 -0.500000
v 0.416667 -0.000000 -0.500000
v -0.416667 0.000000 0.416667
v 0.416667 0.000000 0.416667
v -0.416667 -0.000000 -0.416667
v 0.416667 -0.000000 -0.416667
v -0.416667 -0.332281 -0.500000
v 0.416667 -0.332281 -0.500000
v -0.416667 -0.332281 -0.416667
v 0.416667 -0.332281 -0.416667
v 0.416667 -0.332280 0.500000
v -0.416667 -0.332280 0.500000
v -0.416667 -0.332281 0.416667
v 0.416667 -0.332281 0.416667
v 0.416667 -0.181440 -0.416667
v 0.416667 -0.181440 0.416667
v -0.416667 -0.181440 -0.416667
v -0.416667 -0.181440 0.416667
v -0.436452 -0.066153 0.436452
v 0.436452 -0.066153 0.436452
v -0.436452 -0.066153 -0.436452
v 0.436452 -0.066153 -0.436452
vn -0.0000 -1.0000 -0.0000
vn 1.0000 -0.0000 -0.0000
vn -0.0000 -0.0000 1.0000
vn -1.0000 -0.0000 -0.0000
vn -0.0000 -0.0000 -1.0000
vn -0.0000 1.0000 -0.0000
vt 0.916667 1.000000
vt 1.000000 1.000000
vt 1.000000 0.916667
vt 0.916667 0.916667
vt 0.000000 0.666140
vt 0.000000 0.333860
vt 0.083333 0.333860
vt 0.083333 0.666140
vt 0.083333 0.000000
vt 0.000000 0.000000
vt 0.000000 0.083333
vt 0.083333 0.083333
vt 0.916667 0.666140
vt 0.916667 0.333860
vt 1.000000 0.333860
vt 1.000000 0.666140
vt 1.000000 0.666140
vt 1.000000 0.333860
vt 0.916667 0.333860
vt 0.916667 0.666140
vt 0.916667 0.666140
vt 0.916667 0.333860
vt 1.000000 0.333860
vt 1.000000 0.666140
vt 0.083333 0.666140
vt 0.083333 0.333860
vt 0.000000 0.333860
vt 0.000000 0.666140
vt 0.083333 0.916667
vt 0.000000 0.916667
vt 0.083333 0.666140
vt 0.083333 0.333860
vt 0.000000 0.333860
vt 0.000000 0.666141
vt 1.000000 0.083333
vt 0.916667 0.083333
vt 1.000000 0.666140
vt 1.000000 0.333860
vt 0.916667 0.333860
vt 0.916667 0.666140
vt 0.000000 0.666141
vt 0.000000 0.333860
vt 0.083333 0.333860
vt 0.083333 0.666140
vt 1.000000 0.000000
vt 0.916667 0.000000
vt 0.000000 1.000000
vt 0.083333 1.000000
vt 0.000000 0.000000
vt 1.000000 0.000000
vt 1.000000 1.000000
vt 0.000000 1.000000
s 0
usemtl Material.001
f 26/1/1 12/2/1 11/3/1 28/4/1
f 30/9/1 15/10/1 9/11/1 31/12/1
f 27/29/1 31/12/1 9/11/1 14/30/1
f 11/3/1 10/35/1 32/36/1 28/4/1
f 28/4/1 32/36/1 31/12/1 27/29/1
f 16/45/1 29/46/1 32/36/1 10/35/1
f 29/46/1 30/9/1 31/12/1 32/36/1
f 13/47/1 25/48/1 27/29/1 14/30/1
f 25/48/1 26/1/1 28/4/1 27/29/1
usemtl Material.002
f 1/5/2 16/6/2 10/7/2 6/8/2
f 17/13/3 29/14/3 16/15/3 1/16/3
f 4/17/4 13/18/4 14/19/4 8/20/4
f 5/21/2 11/22/2 12/23/2 3/24/2
f 19/25/5 25/26/5 13/27/5 4/28/5
f 23/29/6 8/30/6 7/11/6 21/12/6
f 7/31/4 9/32/4 15/33/4 2/34/4
f 6/8/2 10/7/2 11/22/2 5/21/2
f 7/31/4 8/20/4 14/19/4 9/32/4
f 5/3/6 24/4/6 22/36/6 6/35/6
f 3/37/5 12/38/5 26/39/5 20/40/5
f 20/40/5 26/39/5 25/26/5 19/25/5
f 2/41/3 15/42/3 30/43/3 18/44/3
f 18/44/3 30/43/3 29/14/3 17/13/3
f 23/29/3 35/29/3 33/4/3 24/4/3
f 4/47/6 8/30/6 23/29/6 19/48/6
f 18/9/6 21/12/6 7/11/6 2/10/6
f 22/36/6 17/46/6 1/45/6 6/35/6
f 3/2/6 20/1/6 24/4/6 5/3/6
f 18/9/6 17/46/6 22/36/6 21/12/6
f 19/48/6 23/29/6 24/4/6 20/1/6
f 34/36/6 33/4/6 35/29/6 36/12/6
f 24/4/4 33/4/4 34/36/4 22/36/4
f 21/12/2 36/12/2 35/29/2 23/29/2
f 22/36/5 34/36/5 36/12/5 21/12/5
usemtl Material.003
f 37/49/6 38/50/6 40/51/6 39/52/6
