# Blender 4.3.2
# www.blender.org
mtllib player.mtl
o raw
v -0.340090 0.382426 0.000000
v -0.334068 0.395858 0.000000
v -0.333605 0.424111 0.000000
v -0.316468 0.459774 0.000000
v -0.293773 0.479227 0.000000
v -0.265983 0.487101 0.000000
v -0.260888 0.541291 0.000000
v -0.239583 0.583439 0.000000
v -0.213182 0.610766 0.000000
v -0.175203 0.628366 0.000000
v -0.117307 0.641335 0.000000
v -0.070064 0.648282 0.000000
v -0.009390 0.648282 0.000000
v 0.037853 0.643188 0.000000
v 0.096675 0.622808 0.000000
v 0.142065 0.592703 0.000000
v 0.178655 0.551481 0.000000
v 0.196255 0.515817 0.000000
v 0.205055 0.490806 0.000000
v 0.234698 0.495901 0.000000
v 0.253688 0.494512 0.000000
v 0.259246 0.481543 0.000000
v 0.261561 0.445416 0.000000
v 0.275456 0.429669 0.000000
v 0.300930 0.418553 0.000000
v 0.329183 0.375478 0.000000
v 0.341689 0.356489 0.000000
v 0.349099 0.330088 0.000000
v 0.351878 0.313878 0.000000
v 0.362068 0.300909 0.000000
v 0.358502 0.265245 0.000000
v 0.352944 0.251906 0.000000
v 0.328489 0.223560 0.000000
v -0.316237 0.335276 0.000000
v -0.327908 0.340278 0.000000
v 0.296762 0.157791 0.000000
v 0.141139 0.107306 0.000000
v -0.162697 0.190213 0.000000
v -0.251625 0.225413 0.000000
v -0.302110 0.270803 0.000000
v -0.069063 0.111404 0.000000
v -0.122602 0.142827 0.000000
v -0.069063 -0.293414 -0.000000
v 0.053595 0.109013 0.000000
v 0.053595 -0.295805 -0.000000
v -0.340090 0.382426 -0.006993
v -0.334068 0.395858 -0.006993
v -0.333605 0.424111 -0.006993
v -0.316468 0.459774 -0.006993
v -0.293773 0.479227 -0.006993
v -0.265983 0.487101 -0.006993
v -0.260888 0.541291 -0.006993
v -0.239583 0.583439 -0.006993
v -0.213182 0.610766 -0.006993
v -0.175203 0.628366 -0.006993
v -0.117307 0.641335 -0.006993
v -0.070064 0.648282 -0.006993
v -0.009390 0.648282 -0.006993
v 0.037853 0.643188 -0.006993
v 0.096675 0.622808 -0.006993
v 0.142065 0.592703 -0.006993
v 0.178655 0.551481 -0.006993
v 0.196255 0.515817 -0.006993
v 0.205055 0.490806 -0.006993
v 0.234698 0.495901 -0.006993
v 0.253688 0.494512 -0.006993
v 0.259246 0.481543 -0.006993
v 0.261561 0.445416 -0.006993
v 0.275456 0.429669 -0.006993
v 0.300930 0.418553 -0.006993
v 0.329183 0.375478 -0.006993
v 0.341689 0.356489 -0.006993
v 0.349099 0.330088 -0.006993
v 0.351878 0.313878 -0.006993
v 0.362068 0.300909 -0.006993
v 0.358502 0.265245 -0.006993
v 0.352944 0.251906 -0.006993
v 0.328489 0.223560 -0.006993
v -0.316237 0.335276 -0.006993
v -0.327908 0.340278 -0.006993
v 0.296762 0.157791 -0.006993
v 0.141139 0.107306 -0.006993
v -0.162697 0.190213 -0.006993
v -0.251625 0.225413 -0.006993
v -0.302110 0.270803 -0.006993
v -0.069063 0.111404 -0.006993
v -0.122602 0.142827 -0.006993
v -0.069063 -0.293414 -0.006993
v 0.053595 0.109013 -0.006993
v 0.053595 -0.295805 -0.006993
vn -0.0000 -0.0000 1.0000
vn -0.0000 -0.0000 -1.0000
vn -0.9125 0.4091 -0.0000
vn -0.9999 0.0164 -0.0000
vn -0.9013 0.4331 -0.0000
vn -0.6508 0.7593 -0.0000
vn -0.2726 0.9621 -0.0000
vn -0.9956 0.0936 -0.0000
vn -0.8925 0.4511 -0.0000
vn -0.7192 0.6948 -0.0000
vn -0.4205 0.9073 -0.0000
vn -0.2186 0.9758 -0.0000
vn -0.1455 0.9894 -0.0000
vn -0.0000 1.0000 -0.0000
vn 0.1072 0.9942 -0.0000
vn 0.3274 0.9449 -0.0000
vn 0.5527 0.8334 -0.0000
vn 0.7479 0.6638 -0.0000
vn 0.8967 0.4425 -0.0000
vn 0.9433 0.3319 -0.0000
vn -0.1694 0.9855 -0.0000
vn 0.0730 0.9973 -0.0000
vn 0.9191 0.3939 -0.0000
vn 0.9980 0.0640 -0.0000
vn 0.7498 0.6616 -0.0000
vn 0.3999 0.9165 -0.0000
vn 0.8362 0.5485 -0.0000
vn 0.8352 0.5500 -0.0000
vn 0.9628 0.2703 -0.0000
vn 0.9856 0.1690 -0.0000
vn 0.7863 0.6178 -0.0000
vn 0.9950 -0.0995 -0.0000
vn 0.9231 -0.3846 -0.0000
vn 0.7572 -0.6532 -0.0000
vn 0.9007 -0.4345 -0.0000
vn -0.3939 -0.9191 -0.0000
vn -0.9607 -0.2776 -0.0000
vn 0.3086 -0.9512 -0.0000
vn -0.7634 -0.6459 -0.0000
vn -0.3680 -0.9298 -0.0000
vn -0.6686 -0.7436 -0.0000
vn -0.9768 -0.2140 -0.0000
vn -0.0195 -0.9998 -0.0000
vn -0.5062 -0.8624 -0.0000
vn -1.0000 -0.0000 -0.0000
vn 1.0000 -0.0000 -0.0000
vt 0.062210 0.371633
vt 0.081016 0.279431
vt 0.148226 0.214519
vt 0.266615 0.164179
vt 0.319993 0.096413
vt 0.391269 0.051474
vt 0.554562 0.048055
vt 0.671108 0.045614
vt 0.878288 0.117813
vt 0.920525 0.211869
vt 0.953082 0.252406
vt 0.960482 0.271482
vt 0.965229 0.322485
vt 0.951664 0.341031
vt 0.947964 0.364214
vt 0.938098 0.401969
vt 0.921450 0.429126
vt 0.883837 0.490727
vt 0.849924 0.506624
vt 0.831426 0.529144
vt 0.828343 0.580809
vt 0.820943 0.599355
vt 0.795663 0.601343
vt 0.756200 0.594056
vt 0.744484 0.629824
vt 0.721053 0.680827
vt 0.672341 0.739778
vt 0.611914 0.782832
vt 0.533605 0.811976
vt 0.470711 0.819262
vt 0.389936 0.819262
vt 0.327042 0.809327
vt 0.249966 0.790780
vt 0.199405 0.765610
vt 0.164258 0.726530
vt 0.135894 0.666255
vt 0.129112 0.588758
vt 0.092115 0.577497
vt 0.061902 0.549678
vt 0.039087 0.498675
vt 0.038471 0.458271
vt 0.030455 0.439062
vt 0.046671 0.378786
vt 0.554562 0.048055
s 0
usemtl player_v1_
f 34/1/1 40/2/1 39/3/1 38/4/1 42/5/1 41/6/1 44/7/1 37/8/1 36/9/1 33/10/1 32/11/1 31/12/1 30/13/1 29/14/1 28/15/1 27/16/1 26/17/1 25/18/1 24/19/1 23/20/1 22/21/1 21/22/1 20/23/1 19/24/1 18/25/1 17/26/1 16/27/1 15/28/1 14/29/1 13/30/1 12/31/1 11/32/1 10/33/1 9/34/1 8/35/1 7/36/1 6/37/1 5/38/1 4/39/1 3/40/1 2/41/1 1/42/1 35/43/1
f 44/7/1 41/6/1 43/6/1 45/44/1
f 79/1/2 80/43/2 46/42/2 47/41/2 48/40/2 49/39/2 50/38/2 51/37/2 52/36/2 53/35/2 54/34/2 55/33/2 56/32/2 57/31/2 58/30/2 59/29/2 60/28/2 61/27/2 62/26/2 63/25/2 64/24/2 65/23/2 66/22/2 67/21/2 68/20/2 69/19/2 70/18/2 71/17/2 72/16/2 73/15/2 74/14/2 75/13/2 76/12/2 77/11/2 78/10/2 81/9/2 82/8/2 89/7/2 86/6/2 87/5/2 83/4/2 84/3/2 85/2/2
f 89/7/2 90/44/2 88/6/2 86/6/2
f 1/42/3 2/41/3 47/41/3 46/42/3
f 2/41/4 3/40/4 48/40/4 47/41/4
f 3/40/5 4/39/5 49/39/5 48/40/5
f 4/39/6 5/38/6 50/38/6 49/39/6
f 5/38/7 6/37/7 51/37/7 50/38/7
f 6/37/8 7/36/8 52/36/8 51/37/8
f 7/36/9 8/35/9 53/35/9 52/36/9
f 8/35/10 9/34/10 54/34/10 53/35/10
f 9/34/11 10/33/11 55/33/11 54/34/11
f 10/33/12 11/32/12 56/32/12 55/33/12
f 11/32/13 12/31/13 57/31/13 56/32/13
f 12/31/14 13/30/14 58/30/14 57/31/14
f 13/30/15 14/29/15 59/29/15 58/30/15
f 14/29/16 15/28/16 60/28/16 59/29/16
f 15/28/17 16/27/17 61/27/17 60/28/17
f 16/27/18 17/26/18 62/26/18 61/27/18
f 17/26/19 18/25/19 63/25/19 62/26/19
f 18/25/20 19/24/20 64/24/20 63/25/20
f 19/24/21 20/23/21 65/23/21 64/24/21
f 20/23/22 21/22/22 66/22/22 65/23/22
f 21/22/23 22/21/23 67/21/23 66/22/23
f 22/21/24 23/20/24 68/20/24 67/21/24
f 23/20/25 24/19/25 69/19/25 68/20/25
f 24/19/26 25/18/26 70/18/26 69/19/26
f 25/18/27 26/17/27 71/17/27 70/18/27
f 26/17/28 27/16/28 72/16/28 71/17/28
f 27/16/29 28/15/29 73/15/29 72/16/29
f 28/15/30 29/14/30 74/14/30 73/15/30
f 29/14/31 30/13/31 75/13/31 74/14/31
f 30/13/32 31/12/32 76/12/32 75/13/32
f 31/12/33 32/11/33 77/11/33 76/12/33
f 32/11/34 33/10/34 78/10/34 77/11/34
f 33/10/35 36/9/35 81/9/35 78/10/35
f 34/1/36 35/43/36 80/43/36 79/1/36
f 35/43/37 1/42/37 46/42/37 80/43/37
f 36/9/38 37/8/38 82/8/38 81/9/38
f 42/5/39 38/4/39 83/4/39 87/5/39
f 38/4/40 39/3/40 84/3/40 83/4/40
f 39/3/41 40/2/41 85/2/41 84/3/41
f 40/2/42 34/1/42 79/1/42 85/2/42
f 45/44/43 43/6/43 88/6/43 90/44/43
f 41/6/44 42/5/44 87/5/44 86/6/44
f 43/6/45 41/6/45 86/6/45 88/6/45
f 37/8/43 44/7/43 89/7/43 82/8/43
f 44/7/46 45/44/46 90/44/46 89/7/46
