# Blender 4.2.1 LTS
# www.blender.org
mtllib road-cross.mtl
o straight
v -0.500000 0.000000 -0.500000
v 0.500000 0.000000 -0.500000
v -0.500000 -0.000000 0.500000
v 0.500000 -0.000000 0.500000
v -0.500000 -0.000000 0.166667
v -0.500000 -0.000000 -0.166667
v 0.500000 0.000000 -0.166667
v 0.500000 0.000000 0.166667
v -0.500000 0.013721 -0.166667
v -0.500000 0.013721 -0.500000
v 0.500000 0.013721 -0.500000
v 0.500000 0.013721 0.166667
v 0.500000 0.013720 0.500000
v -0.500000 0.013720 0.500000
v -0.500000 0.013720 0.166667
v 0.500000 0.013721 -0.166667
v 0.500000 -0.332280 -0.166667
v -0.500000 -0.332281 -0.166667
v -0.500000 -0.332281 0.166667
v -0.500000 -0.332281 0.500000
v 0.500000 -0.332281 0.500000
v 0.500000 -0.332281 0.166667
v 0.500000 -0.332280 -0.500000
v -0.500000 -0.332281 -0.500000
v -0.166667 0.000000 -0.500000
v 0.166667 0.000000 -0.500000
v 0.166667 -0.000000 0.500000
v -0.166667 -0.000000 0.500000
v 0.166667 0.000000 -0.166667
v -0.166667 0.000000 -0.166667
v 0.166667 -0.000000 0.166667
v -0.166667 -0.000000 0.166667
v -0.166667 0.013721 -0.500000
v 0.166667 0.013721 -0.500000
v 0.166667 0.013720 0.500000
v -0.166667 0.013720 0.500000
v 0.166667 0.013721 -0.166667
v -0.166667 0.013721 -0.166667
v 0.166667 0.013721 0.166667
v -0.166667 0.013720 0.166667
v 0.166667 -0.332281 0.500000
v -0.166667 -0.332281 0.500000
v 0.166667 -0.332281 0.166667
v -0.166667 -0.332281 0.166667
v -0.166667 -0.332280 -0.500000
v 0.166667 -0.332280 -0.500000
v 0.166667 -0.332281 -0.166667
v -0.166667 -0.332281 -0.166667
vn -0.0000 -0.0000 -1.0000
vn -0.0000 -0.0000 1.0000
vn -0.0000 -1.0000 -0.0000
vn -0.0000 1.0000 -0.0000
vn 1.0000 -0.0000 -0.0000
vn -1.0000 -0.0000 -0.0000
vt 0.338899 0.461762
vt 0.338899 0.537219
vt 0.012955 0.537220
vt 0.012955 0.461762
vt 0.000000 0.000000
vt 0.000000 0.666667
vt 0.000000 0.444444
vt 1.000000 1.000000
vt 1.000000 2.000000
vt 2.000000 2.000000
vt 2.000000 1.000000
vt 1.000000 -1.000000
vt 1.000000 -0.000000
vt 2.000000 0.000000
vt 2.000000 -1.000000
vt 0.664844 0.461762
vt 0.664844 0.537219
vt 0.990789 0.537219
vt 0.990789 0.461762
vt 0.666667 0.666667
vt 1.000000 0.666667
vt 0.990789 0.537219
vt 0.990789 0.461762
vt 0.000000 0.556524
vt 0.000000 0.429345
vt 0.333333 0.429345
vt 0.333333 0.556524
vt 0.012955 0.461762
vt 0.338899 0.461762
vt 0.333333 0.556524
vt 0.333333 0.429345
vt 0.000000 0.429345
vt 0.000000 0.556524
vt 1.000000 0.556524
vt 1.000000 0.429345
vt 0.666667 0.429345
vt 0.666667 0.556524
vt 0.666667 0.556524
vt 0.666667 0.429345
vt 1.000000 0.429344
vt 1.000000 0.556524
vt 0.666667 0.556524
vt 0.666667 0.429345
vt -0.000000 0.000000
vt 1.000000 0.000000
vt 1.000000 1.000000
vt -0.000000 1.000000
vt 0.333333 0.556524
vt 0.333333 0.429345
vt 0.000000 0.429345
vt 0.000000 0.556524
vt 0.000000 0.222222
vt 0.000000 -0.000000
vt 1.000000 0.000000
vt 1.000000 1.000000
vt 0.000000 1.000000
vt 0.000000 0.000000
vt 1.000000 0.000000
vt 0.000000 1.000000
vt 0.000000 0.556524
vt 0.000000 0.429344
vt 0.333333 0.429345
vt 0.333333 0.556524
vt 1.000000 0.556524
vt 1.000000 0.429345
vt 0.666667 0.429345
vt 0.666667 0.556524
vt 0.664844 0.461762
vt 0.333333 0.666667
vt 0.012955 0.537219
vt 0.338899 0.537219
vt -1.000000 -1.000000
vt -1.000000 -0.000000
vt -0.000000 -0.000000
vt 0.000000 -1.000000
vt -1.000000 1.000000
vt -1.000000 2.000000
vt -0.000000 2.000000
vt -0.000000 1.000000
vt 0.664844 0.537219
s 0
usemtl tile_road
f 8/5/5 12/5/5 13/5/5 4/5/5
f 31/44/4 8/45/4 7/46/4 29/47/4
f 5/53/4 32/54/4 30/55/4 6/56/4
f 32/57/4 31/58/4 29/46/4 30/59/4
usemtl Material.001
f 26/1/1 34/2/1 11/3/1 2/4/1
f 28/5/2 36/5/2 14/5/2 3/5/2
f 42/5/3 20/5/3 19/6/3 44/7/3
f 39/8/4 35/9/4 13/10/4 12/11/4
f 34/12/4 37/13/4 16/14/4 11/15/4
s 1
f 30/16/2 38/17/2 9/18/2 6/19/2
f 31/20/1 39/20/1 12/21/1 8/21/1
s 0
f 9/18/6 10/22/6 1/23/6 6/19/6
f 15/6/6 5/6/6 3/5/6 14/5/6
f 46/1/3 23/4/3 17/28/3 47/29/3
f 43/52/3 47/29/3 17/28/3 22/5/3
f 19/6/3 18/19/3 48/16/3 44/7/3
f 44/7/3 48/16/3 47/29/3 43/52/3
f 24/23/3 45/68/3 48/16/3 18/19/3
f 45/68/3 46/1/3 47/29/3 48/16/3
s 1
f 5/6/1 15/6/1 40/69/1 32/69/1
f 32/69/1 40/69/1 39/20/1 31/20/1
f 7/28/2 16/70/2 37/71/2 29/29/2
f 29/29/2 37/71/2 38/17/2 30/16/2
s 0
f 10/72/4 9/73/4 38/74/4 33/75/4
f 33/75/4 38/74/4 37/13/4 34/12/4
f 15/76/4 14/77/4 36/78/4 40/79/4
f 40/79/4 36/78/4 35/9/4 39/8/4
f 21/5/3 41/5/3 43/52/3 22/5/3
f 41/5/3 42/5/3 44/7/3 43/52/3
f 4/5/2 13/5/2 35/5/2 27/5/2
f 27/5/2 35/5/2 36/5/2 28/5/2
f 1/23/1 10/22/1 33/80/1 25/68/1
f 25/68/1 33/80/1 34/2/1 26/1/1
usemtl Material.002
f 1/24/6 24/25/6 18/26/6 6/27/6
f 25/30/1 45/31/1 24/32/1 1/33/1
f 4/34/5 21/35/5 22/36/5 8/37/5
f 5/38/6 19/39/6 20/40/6 3/41/6
f 27/42/2 41/43/2 21/35/2 4/34/2
f 7/48/5 17/49/5 23/50/5 2/51/5
f 6/27/6 18/26/6 19/39/6 5/38/6
f 7/48/5 8/37/5 22/36/5 17/49/5
f 3/60/2 20/61/2 42/62/2 28/63/2
f 28/63/2 42/62/2 41/43/2 27/42/2
f 2/64/1 23/65/1 46/66/1 26/67/1
f 26/67/1 46/66/1 45/31/1 25/30/1
o cross
v -0.500000 0.000000 -0.500000
v 0.500000 0.000000 -0.500000
v -0.500000 -0.000000 0.500000
v 0.500000 -0.000000 0.500000
v -0.500000 -0.000000 0.166667
v -0.500000 -0.000000 -0.166667
v 0.500000 0.000000 -0.166667
v 0.500000 0.000000 0.166667
v -0.500000 0.013721 -0.166667
v -0.500000 0.013721 -0.500000
v 0.500000 0.013721 -0.500000
v 0.500000 0.013721 0.166667
v 0.500000 0.013720 0.500000
v -0.500000 0.013720 0.500000
v -0.500000 0.013720 0.166667
v 0.500000 0.013721 -0.166667
v 0.500000 -0.332280 -0.166667
v -0.500000 -0.332281 -0.166667
v -0.500000 -0.332281 0.166667
v -0.500000 -0.332281 0.500000
v 0.500000 -0.332281 0.500000
v 0.500000 -0.332281 0.166667
v 0.500000 -0.332280 -0.500000
v -0.500000 -0.332281 -0.500000
v -0.166667 0.000000 -0.500000
v 0.166667 0.000000 -0.500000
v 0.166667 -0.000000 0.500000
v -0.166667 -0.000000 0.500000
v 0.166667 0.000000 -0.166667
v -0.166667 0.000000 -0.166667
v 0.166667 -0.000000 0.166667
v -0.166667 -0.000000 0.166667
v -0.166667 0.013721 -0.500000
v 0.166667 0.013721 -0.500000
v 0.166667 0.013720 0.500000
v -0.166667 0.013720 0.500000
v 0.166667 0.013721 -0.166667
v -0.166667 0.013721 -0.166667
v 0.166667 0.013721 0.166667
v -0.166667 0.013720 0.166667
v 0.166667 -0.332281 0.500000
v -0.166667 -0.332281 0.500000
v 0.166667 -0.332281 0.166667
v -0.166667 -0.332281 0.166667
v -0.166667 -0.332280 -0.500000
v 0.166667 -0.332280 -0.500000
v 0.166667 -0.332281 -0.166667
v -0.166667 -0.332281 -0.166667
v 0.166667 0.215348 0.166667
v 0.166667 0.219303 0.171424
v -0.166667 0.219303 0.171424
v -0.166667 0.215348 0.166667
v 0.166667 0.219450 -0.170630
v 0.166667 0.216155 -0.166667
v -0.166667 0.216155 -0.166667
v -0.166667 0.219450 -0.170630
v -0.166667 0.187119 -0.166667
v 0.166667 0.187120 -0.166667
v -0.166667 0.189943 -0.217872
v 0.166667 0.189943 -0.217872
v 0.166667 0.185104 0.166667
v -0.166667 0.185104 0.166667
v 0.166667 0.188466 0.220710
v -0.166667 0.188466 0.220710
vn -0.0000 -0.0000 -1.0000
vn -0.0000 -0.0000 1.0000
vn -0.0000 -1.0000 -0.0000
vn -0.0000 1.0000 -0.0000
vn 1.0000 -0.0000 -0.0000
vn -1.0000 -0.0000 -0.0000
vn -0.0000 0.8477 0.5304
vn -0.0000 0.8481 -0.5298
vn -0.0000 0.4247 -0.9054
vn -0.0000 0.7689 -0.6393
vn -0.0000 0.7689 0.6393
vn -0.0000 0.4247 0.9054
vt 0.338899 0.461762
vt 0.338899 0.537219
vt 0.012955 0.537220
vt 0.012955 0.461762
vt 0.000000 0.000000
vt 0.000000 0.666667
vt 0.000000 0.444444
vt 1.000000 1.000000
vt 1.000000 2.000000
vt 2.000000 2.000000
vt 2.000000 1.000000
vt 1.000000 -1.000000
vt 1.000000 -0.000000
vt 2.000000 0.000000
vt 2.000000 -1.000000
vt 0.664844 0.461762
vt 0.664844 0.537219
vt 0.990789 0.537219
vt 0.990789 0.461762
vt 0.666667 0.666667
vt 1.000000 0.666667
vt 0.990789 0.537219
vt 0.990789 0.461762
vt 0.000000 0.556524
vt 0.000000 0.429345
vt 0.333333 0.429345
vt 0.333333 0.556524
vt 0.012955 0.461762
vt 0.338899 0.461762
vt 0.333333 0.556524
vt 0.333333 0.429345
vt 0.000000 0.429345
vt 0.000000 0.556524
vt 1.000000 0.556524
vt 1.000000 0.429345
vt 0.666667 0.429345
vt 0.666667 0.556524
vt 0.666667 0.556524
vt 0.666667 0.429345
vt 1.000000 0.429344
vt 1.000000 0.556524
vt 0.666667 0.556524
vt 0.666667 0.429345
vt -0.000000 0.000000
vt 1.000000 0.000000
vt 1.000000 1.000000
vt -0.000000 1.000000
vt 0.333333 0.556524
vt 0.333333 0.429345
vt 0.000000 0.429345
vt 0.000000 0.556524
vt 0.000000 0.222222
vt 0.000000 -0.000000
vt 1.000000 0.000000
vt 1.000000 1.000000
vt 0.000000 1.000000
vt 0.000000 0.000000
vt 1.000000 0.000000
vt 0.000000 1.000000
vt 0.000000 0.556524
vt 0.000000 0.429344
vt 0.333333 0.429345
vt 0.333333 0.556524
vt 1.000000 0.556524
vt 1.000000 0.429345
vt 0.666667 0.429345
vt 0.666667 0.556524
vt 0.664844 0.461762
vt 0.333333 0.666667
vt 0.012955 0.537219
vt 0.338899 0.537219
vt -1.000000 -1.000000
vt -1.000000 -0.000000
vt -0.000000 -0.000000
vt 0.000000 -1.000000
vt -1.000000 1.000000
vt -1.000000 2.000000
vt -0.000000 2.000000
vt -0.000000 1.000000
vt 0.664844 0.537219
vt 0.001812 0.557971
vt -0.151356 0.566410
vt -0.010136 0.592622
vt 0.001713 0.582770
vt 0.998155 0.554784
vt 1.159708 0.564835
vt 1.012375 0.592182
vt 0.998155 0.580358
vt 0.162130 1.000000
vt 1.000000 1.000000
vt 1.000000 0.000000
vt 0.162130 -0.000000
vt -0.151356 0.566410
vt 0.001713 0.557971
vt 0.001713 0.582770
vt -0.010136 0.592622
vt 1.159708 0.564835
vt 0.998155 0.554785
vt 0.998155 0.580358
vt 1.012375 0.592182
vt 3.566334 0.000000
vt 3.566334 1.000000
vt -2.566334 1.000000
vt -2.566334 0.000000
vt 0.333333 0.519155
vt 0.666667 0.519155
vt 0.666667 0.527710
vt 0.333333 0.527710
vt 0.338899 0.537219
vt 0.998352 0.557971
vt 0.001911 0.582770
vt 0.998352 0.582770
vt 0.998352 0.409869
vt 0.001911 0.409869
vt 0.846385 1.000000
vt 0.846385 0.000000
vt 0.000000 -0.000000
vt -0.994729 0.409869
vt 0.001713 0.409869
vt 0.001713 0.409869
vt -0.994729 0.409870
vt 0.333333 0.470678
vt 0.666667 0.470678
vt 1.994596 0.409869
vt 0.998155 0.409869
vt -2.566334 0.999998
vt 0.998155 0.409869
vt 1.994597 0.409868
s 0
usemtl tile_road
f 56/85/11 60/85/11 61/85/11 52/85/11
f 79/124/10 56/125/10 55/126/10 77/127/10
f 53/133/10 80/134/10 78/135/10 54/136/10
f 80/137/10 79/138/10 77/126/10 78/139/10
f 112/169/13 84/170/13 83/171/13 111/172/13
s 1
f 97/100/15 100/149/15 99/149/16 98/100/16
f 101/151/17 104/97/17 103/97/18 102/189/18
s 0
f 81/139/14 107/195/14 108/196/14 82/197/14
usemtl Material.001
f 74/81/7 82/82/7 59/83/7 50/84/7
f 76/85/8 84/85/8 62/85/8 51/85/8
f 90/85/9 68/85/9 67/86/9 92/87/9
f 87/88/10 83/89/10 61/90/10 60/91/10
f 82/92/10 85/93/10 64/94/10 59/95/10
s 1
f 78/96/8 86/97/8 57/98/8 54/99/8
f 79/100/7 87/100/7 60/101/7 56/101/7
s 0
f 57/98/12 58/102/12 49/103/12 54/99/12
f 63/86/12 53/86/12 51/85/12 62/85/12
f 94/81/9 71/84/9 65/108/9 95/109/9
f 91/132/9 95/109/9 65/108/9 70/85/9
f 67/86/9 66/99/9 96/96/9 92/87/9
f 92/87/9 96/96/9 95/109/9 91/132/9
f 72/103/9 93/148/9 96/96/9 66/99/9
f 93/148/9 94/81/9 95/109/9 96/96/9
s 1
f 53/86/7 63/86/7 88/149/7 80/149/7
f 80/149/7 88/149/7 87/100/7 79/100/7
f 55/108/8 64/150/8 85/151/8 77/109/8
f 77/109/8 85/151/8 86/97/8 78/96/8
s 0
f 58/152/10 57/153/10 86/154/10 81/155/10
f 63/156/10 62/157/10 84/158/10 88/159/10
f 69/85/9 89/85/9 91/132/9 70/85/9
f 89/85/9 90/85/9 92/87/9 91/132/9
f 52/85/8 61/85/8 83/85/8 75/85/8
f 75/85/8 83/85/8 84/85/8 76/85/8
f 49/103/7 58/102/7 81/160/7 73/148/7
f 73/148/7 81/160/7 82/82/7 74/81/7
usemtl Material.002
f 49/104/12 72/105/12 66/106/12 54/107/12
f 73/110/7 93/111/7 72/112/7 49/113/7
f 52/114/11 69/115/11 70/116/11 56/117/11
f 53/118/12 67/119/12 68/120/12 51/121/12
f 75/122/8 89/123/8 69/115/8 52/114/8
f 55/128/11 65/129/11 71/130/11 50/131/11
f 54/107/12 66/106/12 67/119/12 53/118/12
f 55/128/11 56/117/11 70/116/11 65/129/11
f 51/140/8 68/141/8 90/142/8 76/143/8
f 76/143/8 90/142/8 89/123/8 75/122/8
f 50/144/7 71/145/7 94/146/7 74/147/7
f 74/147/7 94/146/7 93/111/7 73/110/7
f 106/161/11 108/162/11 101/163/11 102/164/11
f 110/165/12 112/166/12 99/167/12 100/168/12
f 107/173/12 105/174/12 103/175/12 104/176/12
f 111/177/11 109/178/11 97/179/11 98/180/11
s 1
f 109/185/7 110/186/7 100/187/15 97/188/15
f 105/190/8 106/161/8 102/191/18 103/192/18
f 86/193/8 85/194/8 106/161/8 105/190/8
s 0
f 81/198/12 86/199/12 105/174/12 107/173/12
f 85/200/11 82/201/11 108/162/11 106/161/11
s 1
f 87/202/7 88/203/7 110/186/7 109/185/7
s 0
f 83/204/11 87/205/11 109/178/11 111/177/11
f 88/207/12 84/208/12 112/166/12 110/165/12
usemtl Material
f 107/181/14 104/182/14 101/183/14 108/184/14
f 99/181/13 112/182/13 111/206/13 98/184/13
