# Blender 4.3.2
# www.blender.org
mtllib road-angle.mtl
o angle.001
v 0.500000 0.000000 -0.500000
v 0.500000 0.000000 0.500000
v -0.500000 -0.000000 -0.500000
v -0.500000 -0.000000 0.500000
v -0.166667 -0.000000 -0.500000
v 0.166667 -0.000000 -0.500000
v 0.166667 0.000000 0.500000
v -0.166667 0.000000 0.500000
v 0.166667 0.013721 -0.500000
v 0.500000 0.013721 -0.500000
v 0.500000 0.013721 0.500000
v -0.166667 0.013721 0.500000
v -0.500000 0.013720 0.500000
v -0.500000 0.013720 -0.500000
v -0.166667 0.013720 -0.500000
v 0.166667 0.013721 0.500000
v 0.166667 -0.332280 0.500000
v 0.166667 -0.332281 -0.500000
v -0.166667 -0.332281 -0.500000
v -0.500000 -0.332281 -0.500000
v -0.500000 -0.332281 0.500000
v -0.166667 -0.332281 0.500000
v 0.500000 -0.332280 0.500000
v 0.500000 -0.332281 -0.500000
v 0.500000 0.000000 -0.166667
v 0.500000 0.000000 0.166667
v -0.500000 -0.000000 0.166667
v -0.500000 -0.000000 -0.166667
v 0.166667 0.000000 0.166667
v 0.166667 0.000000 -0.166667
v -0.166667 -0.000000 0.166667
v -0.166667 -0.000000 -0.166667
v 0.500000 0.013721 -0.166667
v 0.500000 0.013721 0.166667
v -0.500000 0.013720 0.166667
v -0.500000 0.013720 -0.166667
v 0.166667 0.013721 0.166667
v 0.166667 0.013721 -0.166667
v -0.166667 0.013721 0.166667
v -0.166667 0.013720 -0.166667
v -0.500000 -0.332281 0.166667
v -0.500000 -0.332281 -0.166667
v -0.166667 -0.332281 0.166667
v -0.166667 -0.332281 -0.166667
v 0.500000 -0.332280 -0.166667
v 0.500000 -0.332280 0.166667
v 0.166667 -0.332281 0.166667
v 0.166667 -0.332281 -0.166667
vn 1.0000 -0.0000 -0.0000
vn -1.0000 -0.0000 -0.0000
vn -0.0000 -1.0000 -0.0000
vn -0.0000 1.0000 -0.0000
vn -0.0000 -0.0000 1.0000
vn -0.0000 -0.0000 -1.0000
vn -0.7071 -0.0000 0.7071
vt 0.338899 0.461762
vt 0.338899 0.537219
vt 0.012955 0.537220
vt 0.012955 0.461762
vt 0.000000 0.000000
vt 0.000000 0.666667
vt 0.000000 0.444444
vt 0.000000 0.000000
vt 1.000000 0.000000
vt 1.000000 1.000000
vt 0.000000 1.000000
vt -0.000000 0.000000
vt 1.000000 0.000000
vt -0.000000 1.000000
vt 1.000000 1.000000
vt 0.000000 1.000000
vt 0.666667 0.666667
vt 1.000000 0.666667
vt 0.990789 0.537219
vt 0.990789 0.537219
vt 0.990789 0.461762
vt 0.990789 0.461762
vt 0.000000 0.556524
vt 0.000000 0.429345
vt 0.333333 0.429345
vt 0.333333 0.556524
vt 0.012955 0.461762
vt 0.338899 0.461762
vt 0.333333 0.556524
vt 0.333333 0.429345
vt 0.000000 0.429345
vt 0.000000 0.556524
vt 1.000000 0.556524
vt 1.000000 0.429345
vt 0.666667 0.429345
vt 0.666667 0.556524
vt 0.666667 0.556524
vt 0.666667 0.429345
vt 1.000000 0.429344
vt 1.000000 0.556524
vt 0.666667 0.556524
vt 0.666667 0.429345
vt 0.000000 1.000000
vt 0.333333 0.556524
vt 0.333333 0.429345
vt 0.000000 0.429345
vt 0.000000 0.556524
vt 0.000000 0.222222
vt 0.664844 0.461762
vt 0.000000 1.000000
vt 0.000000 -0.000000
vt 0.000000 0.556524
vt 0.000000 0.429344
vt 0.333333 0.429345
vt 0.333333 0.556524
vt 1.000000 0.556524
vt 1.000000 0.429345
vt 0.666667 0.429345
vt 0.666667 0.556524
vt 0.664844 0.461762
vt 0.666667 1.000000
vt 0.012955 0.537219
vt 0.338899 0.537219
vt 0.664844 0.537219
vt 0.000000 -0.000000
vt 1.000000 -0.000000
vt 0.000000 1.000000
vt 0.000000 0.000000
vt -0.000000 1.000000
vt 0.000000 0.000000
vt 1.000000 -0.000000
vt 0.333333 0.666667
vt 0.333333 1.000000
vt 0.664844 0.537219
vt 0.000000 1.000000
vt 0.000000 0.000000
vt 1.000000 1.000000
vt 0.000000 0.333333
vt 0.666667 0.333333
vt 1.000000 0.000000
vt 0.000000 -0.000000
vt 1.000000 1.000000
s 0
usemtl tile_road
f 8/5/5 12/5/5 13/5/5 4/5/5
f 31/15/4 8/43/4 7/8/4 29/9/4
f 32/50/4 31/51/4 30/15/4
f 28/75/4 27/76/4 31/9/4 32/77/4
f 29/80/4 30/81/4 31/82/4
usemtl Material.001
f 26/1/1 34/2/1 11/3/1 2/4/1
f 28/5/2 36/5/2 14/5/2 3/5/2
f 42/5/3 20/5/3 19/6/3 44/7/3
f 39/8/4 35/9/4 13/10/4 12/11/4
f 34/12/4 37/13/4 16/10/4 11/14/4
f 40/15/4 38/16/4 9/5/4 15/9/4
s 1
f 31/17/1 39/17/1 12/18/1 8/18/1
s 0
f 9/19/6 10/20/6 1/21/6 6/22/6
f 15/6/6 5/6/6 3/5/6 14/5/6
f 46/1/3 23/4/3 17/27/3 47/28/3
f 43/48/3 47/28/3 17/27/3 22/5/3
f 19/6/3 18/22/3 48/49/3 44/7/3
f 44/7/3 48/49/3 47/28/3 43/48/3
f 24/21/3 45/60/3 48/49/3 18/22/3
f 45/60/3 46/1/3 47/28/3 48/49/3
f 31/17/6 27/5/6 35/61/6 39/17/6
s 1
f 7/27/2 16/62/2 37/63/2 29/28/2
f 29/28/2 37/63/2 38/64/7 30/49/7
s 0
f 10/65/4 9/66/4 38/15/4 33/67/4
f 33/68/4 38/9/4 37/15/4 34/69/4
f 15/70/4 14/71/4 36/15/4 40/50/4
f 21/5/3 41/5/3 43/48/3 22/5/3
f 41/5/3 42/5/3 44/7/3 43/48/3
f 4/5/2 13/5/2 35/5/2 27/5/2
f 32/72/5 40/72/5 36/73/5 28/5/5
f 1/21/1 10/20/1 33/74/1 25/60/1
f 25/60/1 33/74/1 34/2/1 26/1/1
s 1
f 38/64/7 40/72/5 32/79/5 30/49/7
s 0
usemtl Material.002
f 1/23/6 24/24/6 18/25/6 6/26/6
f 25/29/1 45/30/1 24/31/1 1/32/1
f 4/33/5 21/34/5 22/35/5 8/36/5
f 5/37/6 19/38/6 20/39/6 3/40/6
f 27/41/2 41/42/2 21/34/2 4/33/2
f 7/44/5 17/45/5 23/46/5 2/47/5
f 6/26/6 18/25/6 19/38/6 5/37/6
f 7/44/5 8/36/5 22/35/5 17/45/5
f 3/52/2 20/53/2 42/54/2 28/55/2
f 28/55/2 42/54/2 41/42/2 27/41/2
f 2/56/1 23/57/1 46/58/1 26/59/1
f 26/59/1 46/58/1 45/30/1 25/29/1
f 5/6/6 15/6/6 9/78/6 6/22/6
