# Blender 4.2.1 LTS
# www.blender.org
mtllib road-straight.mtl
o straight
v 0.500000 0.000000 0.500000
v -0.500000 0.000000 0.500000
v 0.500000 -0.000000 -0.500000
v -0.500000 -0.000000 -0.500000
v 0.500000 -0.000000 -0.166667
v 0.500000 -0.000000 0.166667
v -0.500000 0.000000 0.166667
v -0.500000 0.000000 -0.166667
v 0.500000 0.030000 0.166667
v 0.500000 0.030000 0.500000
v -0.500000 0.030000 0.500000
v -0.500000 0.030000 -0.166667
v -0.500000 0.030000 -0.500000
v 0.500000 0.030000 -0.500000
v 0.500000 0.030000 -0.166667
v -0.500000 0.030000 0.166667
v -0.500000 -0.332280 0.166667
v 0.500000 -0.332281 0.166667
v 0.500000 -0.332281 -0.166667
v 0.500000 -0.332281 -0.500000
v -0.500000 -0.332281 -0.500000
v -0.500000 -0.332281 -0.166667
v -0.500000 -0.332280 0.500000
v 0.500000 -0.332281 0.500000
v 0.166667 0.000000 0.500000
v -0.166667 0.000000 0.500000
v -0.166667 -0.000000 -0.500000
v 0.166667 -0.000000 -0.500000
v -0.166667 0.000000 0.166667
v 0.166667 0.000000 0.166667
v -0.166667 -0.000000 -0.166667
v 0.166667 -0.000000 -0.166667
v 0.166667 0.030000 0.500000
v -0.166667 0.030000 0.500000
v -0.166667 0.030000 -0.500000
v 0.166667 0.030000 -0.500000
v -0.166667 0.030000 0.166667
v 0.166667 0.030000 0.166667
v -0.166667 0.030000 -0.166667
v 0.166667 0.030000 -0.166667
v -0.166667 -0.332281 -0.500000
v 0.166667 -0.332281 -0.500000
v -0.166667 -0.332281 -0.166667
v 0.166667 -0.332281 -0.166667
v 0.166667 -0.332280 0.500000
v -0.166667 -0.332280 0.500000
v -0.166667 -0.332281 0.166667
v 0.166667 -0.332281 0.166667
vn -0.0000 -0.0000 1.0000
vn -0.0000 -0.0000 -1.0000
vn -0.0000 -1.0000 -0.0000
vn -0.0000 1.0000 -0.0000
vn -1.0000 -0.0000 -0.0000
vn 1.0000 -0.0000 -0.0000
vt 0.333333 0.000000
vt 0.000000 0.000000
vt 0.666667 1.000000
vt 1.000000 1.000000
vt 1.000000 0.666667
vt 0.666667 0.666667
vt 0.333333 0.666667
vt 0.333333 1.000000
vt 0.000000 1.000000
vt 0.000000 0.666667
vt 0.333333 0.333333
vt 0.000000 0.333333
vt 0.000000 0.000000
vt 0.666667 0.333333
vt 1.000000 0.333333
vt 0.090000 1.000000
vt 0.000000 1.000000
vt 0.000000 -0.000000
vt 0.090000 -0.000000
vt 0.333333 0.666667
vt 0.000000 0.666667
vt 0.090000 0.000000
vt 0.090000 1.000000
vt 0.000000 1.000000
vt -0.000000 0.000000
vt 0.180000 1.000000
vt 0.090000 1.000000
vt 0.090000 -0.000000
vt 0.180000 -0.000000
vt 0.000000 0.556524
vt 0.000000 0.429345
vt 0.333333 0.429345
vt 0.333333 0.556524
vt 0.000000 0.333333
vt 0.333333 0.333333
vt 0.333333 0.556524
vt 0.333333 0.429345
vt 0.000000 0.429345
vt 0.000000 0.556524
vt 1.000000 0.556524
vt 1.000000 0.429345
vt 0.666667 0.429345
vt 0.666667 0.556524
vt 0.666667 0.556524
vt 0.666667 0.429345
vt 1.000000 0.429344
vt 1.000000 0.556524
vt 0.666667 0.556524
vt 0.666667 0.429345
vt -0.000000 0.000000
vt 1.000000 0.000000
vt 1.000000 1.000000
vt -0.000000 1.000000
vt 0.333333 0.556524
vt 0.333333 0.429345
vt 0.000000 0.429345
vt 0.000000 0.556524
vt 0.000000 -0.000000
vt 1.000000 0.000000
vt 1.000000 1.000000
vt 0.000000 1.000000
vt 0.000000 0.000000
vt 1.000000 0.000000
vt 0.000000 1.000000
vt 0.000000 0.556524
vt 0.000000 0.429344
vt 0.333333 0.429345
vt 0.333333 0.556524
vt 1.000000 0.556524
vt 1.000000 0.429345
vt 0.666667 0.429345
vt 0.666667 0.556524
vt 1.000000 0.000000
vt 0.666667 0.000000
vt 1.000000 0.000000
vt 0.666667 0.333333
vt 0.666667 0.000000
vt 1.000000 1.000000
vt 0.666667 1.000000
vt 0.666667 0.666667
vt 0.333333 1.000000
s 0
usemtl tile_road
f 31/50/4 8/51/4 7/52/4 29/53/4
f 5/58/4 32/59/4 30/60/4 6/61/4
f 32/62/4 31/63/4 29/52/4 30/64/4
usemtl Material.001
f 26/1/1 34/1/1 11/2/1 2/2/1
f 28/3/2 36/3/2 14/4/2 3/4/2
f 42/3/3 20/4/3 19/5/3 44/6/3
f 39/7/4 35/8/4 13/9/4 12/10/4
f 34/1/4 37/11/4 16/12/4 11/13/4
s 1
f 30/14/2 38/14/2 9/15/2 6/15/2
s 0
f 8/16/5 12/17/5 13/18/5 4/19/5
s 1
f 31/20/1 39/20/1 12/21/1 8/21/1
s 0
f 9/22/6 10/23/6 1/24/6 6/25/6
f 15/26/6 5/27/6 3/28/6 14/29/6
f 46/1/3 23/2/3 17/34/3 47/35/3
f 43/20/3 47/35/3 17/34/3 22/21/3
f 19/5/3 18/15/3 48/14/3 44/6/3
f 44/6/3 48/14/3 47/35/3 43/20/3
f 24/73/3 45/74/3 48/14/3 18/15/3
f 45/74/3 46/1/3 47/35/3 48/14/3
s 1
f 5/5/1 15/5/1 40/6/1 32/6/1
f 32/6/1 40/6/1 39/20/1 31/20/1
f 7/34/2 16/34/2 37/35/2 29/35/2
f 29/35/2 37/35/2 38/14/2 30/14/2
s 0
f 10/75/4 9/15/4 38/76/4 33/77/4
f 33/77/4 38/76/4 37/11/4 34/1/4
f 15/5/4 14/78/4 36/79/4 40/80/4
f 40/80/4 36/79/4 35/8/4 39/7/4
f 21/64/3 41/81/3 43/20/3 22/21/3
f 41/81/3 42/3/3 44/6/3 43/20/3
f 4/64/2 13/64/2 35/81/2 27/81/2
f 27/81/2 35/81/2 36/3/2 28/3/2
f 1/73/1 10/73/1 33/74/1 25/74/1
f 25/74/1 33/74/1 34/1/1 26/1/1
f 16/34/5 7/34/5 2/57/5 11/2/5
usemtl Material.002
f 1/30/6 24/31/6 18/32/6 6/33/6
f 25/36/1 45/37/1 24/38/1 1/39/1
f 4/40/5 21/41/5 22/42/5 8/43/5
f 5/44/6 19/45/6 20/46/6 3/47/6
f 27/48/2 41/49/2 21/41/2 4/40/2
f 7/54/5 17/55/5 23/56/5 2/57/5
f 6/33/6 18/32/6 19/45/6 5/44/6
f 7/54/5 8/43/5 22/42/5 17/55/5
f 3/65/2 20/66/2 42/67/2 28/68/2
f 28/68/2 42/67/2 41/49/2 27/48/2
f 2/69/1 23/70/1 46/71/1 26/72/1
f 26/72/1 46/71/1 45/37/1 25/36/1
