# Blender 4.2.1 LTS
# www.blender.org
mtllib road-cross.mtl
o cross
v 0.500000 0.000000 0.500000
v -0.500000 0.000000 0.500000
v 0.500000 -0.000000 -0.500000
v -0.500000 -0.000000 -0.500000
v 0.500000 -0.000000 -0.166667
v 0.500000 -0.000000 0.166667
v -0.500000 0.000000 0.166667
v -0.500000 0.000000 -0.166667
v 0.500000 0.030000 0.166667
v 0.500000 0.030000 0.500000
v -0.500000 0.030000 0.500000
v -0.500000 0.030000 -0.166667
v -0.500000 0.030000 -0.500000
v 0.500000 0.030000 -0.500000
v 0.500000 0.030000 -0.166667
v -0.500000 0.030000 0.166667
v -0.500000 -0.332280 0.166667
v 0.500000 -0.332281 0.166667
v 0.500000 -0.332281 -0.166667
v 0.500000 -0.332281 -0.500000
v -0.500000 -0.332281 -0.500000
v -0.500000 -0.332280 -0.166667
v -0.500000 -0.332280 0.500000
v 0.500000 -0.332280 0.500000
v 0.166667 0.000000 0.500000
v -0.166667 0.000000 0.500000
v -0.166667 -0.000000 -0.500000
v 0.166667 -0.000000 -0.500000
v -0.166667 0.000000 0.166667
v 0.166667 0.000000 0.166667
v -0.166667 -0.000000 -0.166667
v 0.166667 -0.000000 -0.166667
v 0.166667 0.030000 0.500000
v -0.166667 0.030000 0.500000
v -0.166667 0.030000 -0.500000
v 0.166667 0.030000 -0.500000
v -0.166667 0.030000 0.166667
v 0.166667 0.030000 0.166667
v -0.166667 0.030000 -0.166667
v 0.166667 0.030000 -0.166667
v -0.166667 -0.332281 -0.500000
v 0.166667 -0.332281 -0.500000
v -0.166667 -0.332281 -0.166667
v 0.166667 -0.332281 -0.166667
v 0.166667 -0.332280 0.500000
v -0.166667 -0.332280 0.500000
v -0.166667 -0.332280 0.166667
v 0.166667 -0.332280 0.166667
v -0.166667 0.215348 -0.166667
v -0.166667 0.219303 -0.171424
v 0.166667 0.219303 -0.171424
v 0.166667 0.215348 -0.166667
v -0.166667 0.219450 0.170630
v -0.166667 0.216155 0.166667
v 0.166667 0.216154 0.166667
v 0.166667 0.219450 0.170630
v 0.166667 0.187119 0.166667
v -0.166667 0.187119 0.166667
v 0.166667 0.189943 0.217872
v -0.166667 0.189943 0.217872
v -0.166667 0.185104 -0.166667
v 0.166667 0.185103 -0.166667
v -0.166667 0.188466 -0.220710
v 0.166667 0.188466 -0.220710
vn -0.0000 -0.0000 1.0000
vn -0.0000 -0.0000 -1.0000
vn -0.0000 -1.0000 -0.0000
vn -0.0000 1.0000 -0.0000
vn -1.0000 -0.0000 -0.0000
vn 1.0000 -0.0000 -0.0000
vn -0.0000 0.8289 -0.5594
vn -0.0000 0.8481 0.5298
vn -0.0000 0.4247 0.9054
vn -0.0000 0.7689 0.6393
vn -0.0000 0.7689 -0.6393
vn -0.0000 0.4247 -0.9054
vn -0.0000 0.8295 0.5585
vn -0.0000 0.8477 -0.5304
vt 0.338899 0.461762
vt 0.338899 0.537219
vt 0.012955 0.537220
vt 0.012955 0.461762
vt 0.000000 0.000000
vt 0.000000 0.666667
vt 0.000000 0.444444
vt 0.333333 0.666667
vt 0.333333 1.000000
vt 0.000000 1.000000
vt 0.333333 0.000000
vt 0.333333 0.333333
vt 0.000000 0.333333
vt 0.000000 0.000000
vt 0.664844 0.461762
vt 0.664844 0.537219
vt 0.990789 0.537219
vt 0.990789 0.461762
vt 0.180000 1.000000
vt 0.090000 1.000000
vt 0.090000 -0.000000
vt 0.180000 -0.000000
vt 0.666667 0.666667
vt 1.000000 0.666667
vt 0.990789 0.537219
vt 0.990789 0.461762
vt 0.000000 0.556524
vt 0.000000 0.429345
vt 0.333333 0.429345
vt 0.333333 0.556524
vt 0.012955 0.461762
vt 0.338899 0.461762
vt 0.333333 0.556524
vt 0.333333 0.429345
vt 0.000000 0.429345
vt 0.000000 0.556524
vt 1.000000 0.556524
vt 1.000000 0.429345
vt 0.666667 0.429345
vt 0.666667 0.556524
vt 0.666667 0.556524
vt 0.666667 0.429345
vt 1.000000 0.429344
vt 1.000000 0.556524
vt 0.666667 0.556524
vt 0.666667 0.429345
vt -0.000000 0.000000
vt 1.000000 0.000000
vt 1.000000 1.000000
vt -0.000000 1.000000
vt 0.333333 0.556524
vt 0.333333 0.429345
vt 0.000000 0.429345
vt 0.000000 0.556524
vt 0.000000 0.222222
vt 0.000000 -0.000000
vt 1.000000 0.000000
vt 1.000000 1.000000
vt 0.000000 1.000000
vt 0.000000 0.000000
vt 1.000000 0.000000
vt 0.000000 1.000000
vt 0.000000 0.556524
vt 0.000000 0.429344
vt 0.333333 0.429345
vt 0.333333 0.556524
vt 1.000000 0.556524
vt 1.000000 0.429345
vt 0.666667 0.429345
vt 0.666667 0.556524
vt 0.664844 0.461762
vt 0.333333 0.666667
vt 0.012955 0.537219
vt 0.338899 0.537219
vt 1.000000 0.000000
vt 1.000000 0.333333
vt 0.666667 0.333333
vt 0.666667 0.000000
vt 1.000000 1.000000
vt 0.666667 1.000000
vt 0.664844 0.537219
vt 1.505396 0.750314
vt 0.494604 0.750314
vt 0.494604 -0.249686
vt 1.505396 -0.249686
vt 3.566334 0.000000
vt 3.566334 1.000000
vt -2.566334 1.000000
vt -2.566334 0.000000
vt 0.333333 0.519155
vt 0.666667 0.519155
vt 0.666667 0.527710
vt 0.333333 0.527710
vt 0.338899 0.537219
vt 0.998352 0.557971
vt 0.001812 0.557971
vt 0.001911 0.582770
vt 0.998352 0.582770
vt 0.998352 0.409869
vt 0.001911 0.409869
vt -0.510164 0.755082
vt -0.510164 -0.244918
vt 0.510164 -0.244918
vt 0.510164 0.755082
vt 0.333333 0.470678
vt 0.666667 0.470678
vt -2.566334 0.999998
vt 0.000000 0.000000
vt 0.090000 -0.000000
vt 0.090000 1.000000
vt 0.000000 1.000000
vt 0.180000 0.000000
vt 0.180000 1.000000
vt 0.090000 1.000000
vt 0.090000 0.000000
vt 0.666407 0.409937
vt 0.666407 0.565040
vt 0.666407 0.595284
vt 0.671164 0.599240
vt 0.720451 0.568402
vt 0.999741 0.379937
vt 0.666407 0.379937
vt 0.090000 0.000000
vt 0.090000 1.000000
vt 0.000000 1.000000
vt 0.666407 0.565040
vt 0.666407 0.409937
vt 0.666407 0.379937
vt 0.999741 0.379936
vt 0.720451 0.568402
vt 0.671164 0.599240
vt 0.666407 0.595284
vt 0.180000 1.000000
vt 0.180000 -0.000000
vt 0.270000 0.000000
vt 0.270000 1.000000
vt 0.270000 1.000000
vt 0.270000 0.000000
vt 0.360000 0.000000
vt 0.360000 1.000000
vt -0.000259 0.379937
vt 0.333074 0.379937
vt 0.333074 0.409937
vt 0.333074 0.567056
vt 0.333074 0.596091
vt 0.329110 0.599387
vt 0.281869 0.569879
vt 0.333074 0.567056
vt 0.333074 0.409937
vt 0.333074 0.379937
vt -0.000259 0.379937
vt 0.281869 0.569879
vt 0.329110 0.599387
vt 0.333074 0.596091
s 0
usemtl tile_road
f 31/47/4 8/48/4 7/49/4 29/50/4
f 5/56/4 32/57/4 30/58/4 6/59/4
f 32/60/4 31/61/4 29/49/4 30/62/4
f 27/82/7 63/83/7 64/84/7 28/85/7
s 1
f 49/23/9 52/72/9 51/72/10 50/23/10
f 53/74/11 56/16/11 55/16/12 54/94/12
s 0
f 26/101/13 25/102/13 59/103/13 60/104/13
usemtl Material.001
f 26/1/1 34/2/1 11/3/1 2/4/1
f 28/5/2 36/5/2 14/5/2 3/5/2
f 42/5/3 20/5/3 19/6/3 44/7/3
f 39/8/4 35/9/4 13/10/4 12/6/4
f 34/11/4 37/12/4 16/13/4 11/14/4
s 1
f 30/15/2 38/16/2 9/17/2 6/18/2
s 0
f 8/19/5 12/20/5 13/21/5 4/22/5
s 1
f 31/23/1 39/23/1 12/24/1 8/24/1
s 0
f 9/17/6 10/25/6 1/26/6 6/18/6
f 15/6/6 5/6/6 3/5/6 14/5/6
f 46/1/3 23/4/3 17/31/3 47/32/3
f 43/55/3 47/32/3 17/31/3 22/5/3
f 19/6/3 18/18/3 48/15/3 44/7/3
f 44/7/3 48/15/3 47/32/3 43/55/3
f 24/26/3 45/71/3 48/15/3 18/18/3
f 45/71/3 46/1/3 47/32/3 48/15/3
s 1
f 5/6/1 15/6/1 40/72/1 32/72/1
f 32/72/1 40/72/1 39/23/1 31/23/1
f 7/31/2 16/73/2 37/74/2 29/32/2
f 29/32/2 37/74/2 38/16/2 30/15/2
s 0
f 10/75/4 9/76/4 38/77/4 33/78/4
f 15/24/4 14/79/4 36/80/4 40/23/4
f 21/5/3 41/5/3 43/55/3 22/5/3
f 41/5/3 42/5/3 44/7/3 43/55/3
f 4/5/2 13/5/2 35/5/2 27/5/2
f 1/26/1 10/25/1 33/81/1 25/71/1
f 16/108/5 7/109/5 2/110/5 11/111/5
f 35/112/6 39/113/6 31/114/6 27/115/6
f 36/5/5 28/123/5 32/124/5 40/125/5
f 26/133/6 29/134/6 37/135/6 34/136/6
f 30/137/5 25/138/5 33/139/5 38/140/5
usemtl Material.002
f 1/27/6 24/28/6 18/29/6 6/30/6
f 25/33/1 45/34/1 24/35/1 1/36/1
f 4/37/5 21/38/5 22/39/5 8/40/5
f 5/41/6 19/42/6 20/43/6 3/44/6
f 27/45/2 41/46/2 21/38/2 4/37/2
f 7/51/5 17/52/5 23/53/5 2/54/5
f 6/30/6 18/29/6 19/42/6 5/41/6
f 7/51/5 8/40/5 22/39/5 17/52/5
f 3/63/2 20/64/2 42/65/2 28/66/2
f 28/66/2 42/65/2 41/46/2 27/45/2
f 2/67/1 23/68/1 46/69/1 26/70/1
f 26/70/1 46/69/1 45/34/1 25/33/1
s 1
f 61/90/1 62/91/1 52/92/9 49/93/9
f 57/95/2 58/96/2 54/97/12 55/98/12
f 38/99/2 37/100/2 58/96/2 57/95/2
f 39/105/1 40/106/1 62/91/1 61/90/1
s 0
f 39/116/5 61/117/5 49/118/5 50/119/5 63/120/5 27/121/5 31/122/5
f 62/126/6 40/127/6 32/128/6 28/129/6 64/130/6 51/131/6 52/132/6
f 25/141/6 30/142/6 38/143/6 57/144/6 55/145/6 56/146/6 59/147/6
f 58/148/5 37/149/5 29/150/5 26/151/5 60/152/5 53/153/5 54/154/5
usemtl Material
f 59/86/8 56/87/8 53/88/8 60/89/8
f 51/86/14 64/87/14 63/107/14 50/89/14
